# xmcd
#
# Track frame offsets: 
#        151
#        12806
#        36168
#        50943
#        66589
#        80933
#        99591
#        120233
#        135652
#        152973
#        168506
#        182772
#        201924
#
# Disc length: 2837 seconds
#
# Revision: 0
# Processed by: cddbd v1.5.2PL0 Copyright (c) Steve Scherf et al.
# Submitted via: ExactAudioCopy v0.99pb5
#
DISCID=bc0b130d
DTITLE=Lil' Ronnie and The Grand Dukes - Too Fast For Conditions
DYEAR=1998
DGENRE=Blues
TTITLE0=Cross Eyed Suzie Lee
TTITLE1=Too Fast For Conditions
TTITLE2=I Found My Baby
TTITLE3=Bettin' On My Baby
TTITLE4=The Spin
TTITLE5=Love Life
TTITLE6=Blame It On Me
TTITLE7=Roll Roll Roll
TTITLE8=T-Bonin' Part 1
TTITLE9=Lonely Man
TTITLE10=My Arching Head
TTITLE11=I Wasted Too Much Time
TTITLE12=Don't Get Around Much Anymore
EXTD=
EXTT0=
EXTT1=
EXTT2=
EXTT3=
EXTT4=
EXTT5=
EXTT6=
EXTT7=
EXTT8=
EXTT9=
EXTT10=
EXTT11=
EXTT12=
PLAYORDER=
